<svg xmlns="http://www.w3.org/2000/svg" xmlns:xlink="http://www.w3.org/1999/xlink" fill="none" version="1.1" width="48.214111328125" height="27" viewBox="0 0 48.214111328125 27"><g><g><path d="M10.411035537719727,22.662743508361817Q14.315178637719727,26.110194508361815,19.66763403771973,25.748562508361818C24.978103537719726,25.748562508361818,39.81804253771973,19.328487508361818,39.81804253771973,9.745945908361817Q39.81804253771973,3.4471844468458164,30.435512537719728,3.4471445083618164C36.96340553771972,4.702772708361817,37.76101853771973,8.204121108361816,37.76102653771973,9.745906808361816C37.76102653771973,14.746649508361816,28.084629537719728,29.238150508361816,10.411035537719727,22.662743508361817ZM19.037932437719725,26.769867508361816C23.424845537719726,27.259301508361816,30.435512537719728,27.557217508361816,37.92894953771973,21.194445508361817Q45.31743053771973,15.108567508361816,48.21405253771972,3.4471445083618164C44.456838537719726,10.901041008361815,42.08497253771972,14.795233508361816,37.404197537719725,18.470767508361817C32.72342153771973,22.146302508361817,24.390386537719728,26.769825508361816,19.037932437719725,26.769867508361816Z" fill="#225DF7" fill-opacity="1"/></g><g><path d="M11.166688,8.591114Q5.4993834,13.485501,0,24.018932Q3.1257787,12.892366,10.432038,5.9525318Q18.072403,-1.2188237,29.2181,0.24956289Q16.582113,3.6967764,11.166688,8.591114ZM30.141649,2.6967521C26.027601,2.6967521,20.948036,3.9522574,12.53103,8.8678751Q21.787624,1.16461,30.141649,1.16461Q35.934906,1.1646105,38.495682,4.5268097Q34.255695,2.6967521,30.141649,2.6967521ZM16.582113,23.422962Q8.6059055,22.486788,8.6059055,17.720003Q8.3960056,13.847212,13.916381,9.0378637Q10.557978,14.357924,10.557978,17.720003C10.557981,19.360252,11.166688,21.039768,16.582113,23.422962Z" fill-rule="evenodd" fill="#07DAF6" fill-opacity="1"/></g></g></svg>